<?xml version="1.0" encoding="utf-8"?>
<!-- Generator: Adobe Illustrator 22.0.1, SVG Export Plug-In . SVG Version: 6.00 Build 0)  -->
<svg version="1.1" xmlns="http://www.w3.org/2000/svg" xmlns:xlink="http://www.w3.org/1999/xlink" x="0px" y="0px"
	 viewBox="0 0 811.454 640.104" enable-background="new 0 0 811.454 640.104" xml:space="preserve">
<g id="bg">
	<polygon fill="#F9F0DF" points="811.454,547.616 811.454,511.206 811.454,0 0,0 0,511.206 0,547.616 0,550.644 811.454,550.644 	
		"/>
	<rect x="0" y="550.644" fill="#D8C3B2" width="811.454" height="89.46"/>
	<g>
		<rect x="23.698" y="0" fill="#F5ECDB" width="22.632" height="550.644"/>
		<rect x="65.138" y="0" fill="#F5ECDB" width="22.632" height="550.644"/>
		<rect x="106.578" y="0" fill="#F5ECDB" width="22.632" height="550.644"/>
		<rect x="148.018" y="0" fill="#F5ECDB" width="22.632" height="550.644"/>
		<rect x="189.458" y="0" fill="#F5ECDB" width="22.632" height="550.644"/>
		<rect x="230.898" y="0" fill="#F5ECDB" width="22.632" height="550.644"/>
		<rect x="272.339" y="0" fill="#F5ECDB" width="22.632" height="550.644"/>
		<rect x="313.779" y="0" fill="#F5ECDB" width="22.632" height="550.644"/>
		<rect x="355.219" y="0" fill="#F5ECDB" width="22.632" height="550.644"/>
		<rect x="396.659" y="0" fill="#F5ECDB" width="22.632" height="550.644"/>
		<rect x="438.099" y="0" fill="#F5ECDB" width="22.632" height="550.644"/>
		<rect x="479.539" y="0" fill="#F5ECDB" width="22.632" height="550.644"/>
		<rect x="520.979" y="0" fill="#F5ECDB" width="22.632" height="550.644"/>
		<rect x="562.42" y="0" fill="#F5ECDB" width="22.632" height="550.644"/>
		<rect x="603.86" y="0" fill="#F5ECDB" width="22.632" height="550.644"/>
		<rect x="645.3" y="0" fill="#F5ECDB" width="22.632" height="550.644"/>
		<rect x="686.74" y="0" fill="#F5ECDB" width="22.632" height="550.644"/>
		<rect x="728.18" y="0" fill="#F5ECDB" width="22.632" height="550.644"/>
		<rect x="769.62" y="0" fill="#F5ECDB" width="22.632" height="550.644"/>
	</g>
</g>
<g id="Layer_2">
	<g>
		<g>
			<rect x="50.284" y="251.9" fill="#B48362" width="206.941" height="10.905"/>
		</g>
		<g>
			<rect x="64.501" y="262.805" fill="#9E7356" width="178.506" height="6.621"/>
		</g>
	</g>
</g>
<g id="Layer_8">
	<g>
		<rect x="303.758" fill="#231F20" width="2.463" height="32.259"/>
		<circle fill="#42BA86" cx="304.99" cy="43.732" r="12.436"/>
		<circle fill="#FFFFFF" cx="304.99" cy="88.184" r="12.436"/>
		<path fill="#42BA86" d="M352.755,90.461c-0.567-25.902-21.726-46.73-47.765-46.73c-26.038,0-47.198,20.827-47.765,46.73H352.755z"
			/>
	</g>
	<g>
		<rect x="733.274" fill="#231F20" width="2.463" height="32.259"/>
		<circle fill="#42BA86" cx="734.505" cy="43.732" r="12.436"/>
		<circle fill="#FFFFFF" cx="734.505" cy="88.184" r="12.436"/>
		<path fill="#42BA86" d="M782.27,90.461c-0.567-25.902-21.726-46.73-47.765-46.73c-26.038,0-47.198,20.827-47.765,46.73H782.27z"/>
	</g>
</g>
<g id="Layer_7">
	<g>
		<circle fill="#84B208" cx="544.293" cy="109.321" r="48.496"/>
		<circle fill="#FFFFFF" cx="544.293" cy="109.321" r="44.275"/>
		<g>
			<circle fill="#231F20" cx="544.293" cy="68.737" r="1.754"/>
			<circle fill="#231F20" cx="544.293" cy="149.905" r="1.754"/>
			<circle fill="#231F20" cx="584.877" cy="109.321" r="1.754"/>
			<circle fill="#231F20" cx="503.708" cy="109.321" r="1.754"/>
		</g>
		<path fill="#231F20" d="M544.293,111.075L544.293,111.075c-0.969,0-1.754-0.785-1.754-1.754V79.726
			c0-0.969,0.785-1.754,1.754-1.754l0,0c0.969,0,1.754,0.785,1.754,1.754v29.595C546.046,110.29,545.261,111.075,544.293,111.075z"
			/>
		<path fill="#231F20" d="M542.539,109.321L542.539,109.321c0-0.969,0.785-1.754,1.754-1.754h19.666
			c0.969,0,1.754,0.785,1.754,1.754l0,0c0,0.969-0.785,1.754-1.754,1.754h-19.666C543.324,111.075,542.539,110.29,542.539,109.321z"
			/>
	</g>
</g>
<g id="Layer_4">
	<g>
		<rect x="379.308" y="209.364" fill="#0C0C0E" width="328.073" height="193.191"/>
		<polygon fill="#3E3E3F" points="388.324,219.837 388.324,392.083 426.021,392.083 582.761,219.837 		"/>
		<polygon fill="#363436" points="698.365,219.837 582.761,219.837 426.021,392.083 698.365,392.083 		"/>
		<path fill="#0C0C0E" d="M579.592,424.011c6.171,6.59-78.665,6.59-72.494,0c6.171-6.59,8.422-21.455,8.422-21.455h56.018
			C571.538,402.555,573.421,417.42,579.592,424.011z"/>
		<path fill="#0C0C0E" d="M598.892,430.74H487.797l0,0c0-4.366,3.54-7.906,7.906-7.906h95.283
			C595.353,422.834,598.892,426.374,598.892,430.74L598.892,430.74z"/>
	</g>
</g>
<g id="Layer_5">
	<g>
		<g>
			<rect x="307.435" y="431.054" fill="#B48362" width="472.353" height="14.07"/>
			<rect x="312.69" y="499.56" fill="#D6AB8D" width="461.309" height="61.809"/>
			<rect x="312.69" y="445.124" fill="#D6AB8D" width="461.309" height="54.437"/>
			<rect x="317.616" y="448.806" fill="#76563F" width="451.458" height="47.072"/>
			<g>
				
					<rect x="317.616" y="504.593" fill="none" stroke="#B48363" stroke-width="0.5" stroke-miterlimit="10" width="218.29" height="47.221"/>
				<rect x="390.58" y="525.691" fill="#B48362" width="72.362" height="10.553"/>
			</g>
			<g>
				
					<rect x="550.783" y="504.593" fill="none" stroke="#B48363" stroke-width="0.5" stroke-miterlimit="10" width="218.29" height="47.221"/>
				<rect x="623.747" y="525.691" fill="#B48362" width="72.362" height="10.553"/>
			</g>
			<rect x="312.69" y="561.37" fill="#344451" width="461.309" height="6.138"/>
			<rect x="317.616" y="567.507" fill="#344451" width="13.994" height="20.896"/>
			<rect x="755.079" y="567.507" fill="#344451" width="13.994" height="20.896"/>
		</g>
		<g>
			<g>
				<path fill="#1C7AC7" d="M342.837,494.797c-2.679,0-4.85-1.715-4.85-3.831v-2.752c0-2.116,2.171-3.831,4.85-3.831h58.455v-1.081
					h-59.455c-3.019,0-5.467,1.934-5.467,4.319v3.938c0,2.385,2.448,4.319,5.467,4.319h59.455v-1.081H342.837z"/>
				<g>
					<path fill="#344451" d="M346.366,482.119c-2.316,0-4.192-1.876-4.192-4.191v-3.01c0-2.315,1.876-4.191,4.192-4.191h50.52
						v-1.182h-51.383c-2.609,0-4.725,2.115-4.725,4.725v4.308c0,2.609,2.115,4.725,4.725,4.725h51.383v-1.182H346.366z"/>
					<path fill="#FFFFFF" d="M346.215,482.119h48.521v-11.394h-48.521c-2.469,0-4.47,2.001-4.47,4.47v2.453
						C341.745,480.118,343.746,482.119,346.215,482.119z"/>
				</g>
				<path fill="#1C7AC7" d="M342.837,494.797c-2.679,0-4.85-1.715-4.85-3.831v-2.752c0-2.116,2.171-3.831,4.85-3.831h58.455v-1.081
					h-59.455c-3.019,0-5.467,1.934-5.467,4.319v3.938c0,2.385,2.448,4.319,5.467,4.319h59.455v-1.081H342.837z"/>
				<path fill="#FFFFFF" d="M342.087,494.797h56.717v-10.415h-56.717c-2.539,0-4.597,2.058-4.597,4.597v1.22
					C337.49,492.739,339.548,494.797,342.087,494.797z"/>
			</g>
			<g>
				<path fill="#1C7AC7" d="M460.804,494.959c2.277,0,4.123-1.458,4.123-3.257v-2.339c0-1.799-1.845-3.257-4.123-3.257h-49.686
					v-0.919h50.536c2.566,0,4.647,1.644,4.647,3.671v3.347c0,2.027-2.081,3.671-4.647,3.671h-50.536v-0.919H460.804z"/>
				<g>
					<path fill="#127F86" d="M457.805,484.183c1.968,0,3.563-1.595,3.563-3.563v-2.559c0-1.968-1.595-3.563-3.563-3.563h-42.941
						v-1.005h43.675c2.218,0,4.016,1.798,4.016,4.016v3.662c0,2.218-1.798,4.016-4.016,4.016h-43.675v-1.005H457.805z"/>
					<path fill="#FFFFFF" d="M457.934,484.183h-41.242v-9.684h41.242c2.098,0,3.8,1.701,3.8,3.8v2.085
						C461.733,482.482,460.032,484.183,457.934,484.183z"/>
				</g>
				<path fill="#DC4F55" d="M460.804,494.959c2.277,0,4.123-1.458,4.123-3.257v-2.339c0-1.799-1.845-3.257-4.123-3.257h-49.686
					v-0.919h50.536c2.566,0,4.647,1.644,4.647,3.671v3.347c0,2.027-2.081,3.671-4.647,3.671h-50.536v-0.919H460.804z"/>
				<path fill="#FFFFFF" d="M461.442,494.959h-48.209v-8.852h48.209c2.158,0,3.908,1.749,3.908,3.908v1.037
					C465.35,493.21,463.6,494.959,461.442,494.959z"/>
			</g>
		</g>
		<g>
			<g>
				<rect x="482.757" y="468.039" fill="#828282" width="152.751" height="24.946"/>
				<rect x="492.349" y="492.985" width="12.112" height="2.892"/>
				<rect x="613.285" y="492.985" width="12.112" height="2.892"/>
			</g>
			<g>
				<circle fill="#4D4D4D" cx="497.038" cy="480.512" r="9.4"/>
				<circle fill="#292929" cx="497.038" cy="480.512" r="4.833"/>
			</g>
			<rect x="510.822" y="476.516" fill="#4D4D4D" width="66.942" height="7.992"/>
			<path fill="#292929" d="M594.345,482.009h-3.113c-0.986,0-1.786-0.8-1.786-1.786v-0.693c0-0.986,0.8-1.786,1.786-1.786h3.113
				c0.986,0,1.786,0.8,1.786,1.786v0.693C596.131,481.21,595.331,482.009,594.345,482.009z"/>
			<path fill="#292929" d="M604.145,482.009h-3.113c-0.986,0-1.786-0.8-1.786-1.786v-0.693c0-0.986,0.8-1.786,1.786-1.786h3.113
				c0.986,0,1.786,0.8,1.786,1.786v0.693C605.93,481.21,605.131,482.009,604.145,482.009z"/>
			<path fill="#292929" d="M613.944,482.009h-3.113c-0.986,0-1.786-0.8-1.786-1.786v-0.693c0-0.986,0.8-1.786,1.786-1.786h3.113
				c0.986,0,1.786,0.8,1.786,1.786v0.693C615.73,481.21,614.931,482.009,613.944,482.009z"/>
			<path fill="#292929" d="M623.744,482.009h-3.113c-0.986,0-1.786-0.8-1.786-1.786v-0.693c0-0.986,0.8-1.786,1.786-1.786h3.113
				c0.986,0,1.786,0.8,1.786,1.786v0.693C625.53,481.21,624.731,482.009,623.744,482.009z"/>
		</g>
		<rect x="703.407" y="450.736" fill="#0097C2" width="14.343" height="45.141"/>
		<rect x="717.75" y="456.062" fill="#F0532F" width="8.647" height="39.816"/>
		<rect x="726.396" y="452.888" fill="#6EB251" width="5.383" height="42.99"/>
		<rect x="734.401" y="465.309" fill="#F595A1" width="8.971" height="30.568"/>
		
			<rect x="753.118" y="456.404" transform="matrix(0.866 0.5 -0.5 0.866 339.6775 -314.2424)" fill="#0097C2" width="6.211" height="40.644"/>
	</g>
</g>
<g id="Layer_9">
	<g>
		<path fill="#09A5C2" d="M239.34,522.462H61.32V404.797c0-21.043,17.059-38.102,38.102-38.102h101.815
			c21.043,0,38.102,17.059,38.102,38.102V522.462z"/>
		<path fill="#31B7D9" d="M249.985,441.154c-3.061,0-5.722,2.099-6.436,5.076l-14.459,60.325h-0.563H71.264h-0.563l-14.459-60.325
			c-0.713-2.977-3.375-5.076-6.436-5.076h-17.61c-4.319,0-7.481,4.07-6.413,8.255l21.171,82.954
			c1.887,7.394,8.547,12.567,16.177,12.567h8.131h157.264h8.132c7.631,0,14.29-5.174,16.177-12.567l21.17-82.954
			c1.068-4.185-2.094-8.255-6.413-8.255H249.985z"/>
		<path fill="#31B7D9" d="M229.091,504.742H71.264l-3.993-16.817c-0.717-2.901,1.479-5.705,4.467-5.705h156.79
			c2.921,0,5.102,2.686,4.504,5.545L229.091,504.742z"/>
		<g>
			<g>
				<g>
					<path fill="#007C93" d="M106.449,412.653c0.417,0.854,0.624,1.707,0.784,2.561c0.147,0.854,0.215,1.707,0.216,2.561
						c0.002,0.854-0.067,1.707-0.213,2.561c-0.158,0.854-0.367,1.707-0.786,2.561c-0.419-0.854-0.628-1.707-0.786-2.561
						c-0.147-0.854-0.215-1.707-0.213-2.561c0.001-0.854,0.069-1.707,0.216-2.561C105.825,414.36,106.032,413.507,106.449,412.653z"
						/>
				</g>
				<g>
					<path fill="#007C93" d="M111.571,417.775c-0.854,0.417-1.707,0.624-2.561,0.784c-0.854,0.147-1.707,0.215-2.561,0.216
						c-0.854,0.002-1.707-0.067-2.561-0.213c-0.854-0.158-1.707-0.367-2.561-0.786c0.854-0.419,1.707-0.628,2.561-0.786
						c0.854-0.147,1.707-0.215,2.561-0.213c0.854,0.001,1.707,0.069,2.561,0.216C109.864,417.151,110.717,417.358,111.571,417.775z"
						/>
				</g>
			</g>
			<g>
				<g>
					<path fill="#007C93" d="M106.449,455.199c0.417,0.854,0.624,1.707,0.784,2.561c0.147,0.854,0.215,1.707,0.216,2.561
						c0.002,0.854-0.067,1.707-0.213,2.561c-0.158,0.854-0.367,1.707-0.786,2.561c-0.419-0.854-0.628-1.707-0.786-2.561
						c-0.147-0.854-0.215-1.707-0.213-2.561c0.001-0.854,0.069-1.707,0.216-2.561C105.825,456.907,106.032,456.053,106.449,455.199z
						"/>
				</g>
				<g>
					<path fill="#007C93" d="M111.571,460.322c-0.854,0.417-1.707,0.624-2.561,0.784c-0.854,0.147-1.707,0.215-2.561,0.216
						c-0.854,0.002-1.707-0.067-2.561-0.213c-0.854-0.158-1.707-0.367-2.561-0.786c0.854-0.419,1.707-0.628,2.561-0.786
						c0.854-0.147,1.707-0.215,2.561-0.213c0.854,0.001,1.707,0.069,2.561,0.216C109.864,459.698,110.717,459.905,111.571,460.322z"
						/>
				</g>
			</g>
			<g>
				<g>
					<path fill="#007C93" d="M194.212,412.653c0.417,0.854,0.624,1.707,0.784,2.561c0.147,0.854,0.215,1.707,0.216,2.561
						c0.002,0.854-0.067,1.707-0.213,2.561c-0.158,0.854-0.367,1.707-0.786,2.561c-0.419-0.854-0.628-1.707-0.786-2.561
						c-0.147-0.854-0.215-1.707-0.213-2.561c0.001-0.854,0.069-1.707,0.216-2.561C193.588,414.36,193.795,413.507,194.212,412.653z"
						/>
				</g>
				<g>
					<path fill="#007C93" d="M199.334,417.775c-0.854,0.417-1.707,0.624-2.561,0.784c-0.854,0.147-1.707,0.215-2.561,0.216
						c-0.854,0.002-1.707-0.067-2.561-0.213c-0.854-0.158-1.707-0.367-2.561-0.786c0.854-0.419,1.707-0.628,2.561-0.786
						c0.854-0.147,1.707-0.215,2.561-0.213c0.854,0.001,1.707,0.069,2.561,0.216C197.627,417.151,198.48,417.358,199.334,417.775z"
						/>
				</g>
			</g>
			<g>
				<g>
					<path fill="#007C93" d="M194.212,455.199c0.417,0.854,0.624,1.707,0.784,2.561c0.147,0.854,0.215,1.707,0.216,2.561
						c0.002,0.854-0.067,1.707-0.213,2.561c-0.158,0.854-0.367,1.707-0.786,2.561c-0.419-0.854-0.628-1.707-0.786-2.561
						c-0.147-0.854-0.215-1.707-0.213-2.561c0.001-0.854,0.069-1.707,0.216-2.561C193.588,456.907,193.795,456.053,194.212,455.199z
						"/>
				</g>
				<g>
					<path fill="#007C93" d="M199.334,460.322c-0.854,0.417-1.707,0.624-2.561,0.784c-0.854,0.147-1.707,0.215-2.561,0.216
						c-0.854,0.002-1.707-0.067-2.561-0.213c-0.854-0.158-1.707-0.367-2.561-0.786c0.854-0.419,1.707-0.628,2.561-0.786
						c0.854-0.147,1.707-0.215,2.561-0.213c0.854,0.001,1.707,0.069,2.561,0.216C197.627,459.698,198.48,459.905,199.334,460.322z"
						/>
				</g>
			</g>
		</g>
		<rect x="59.996" y="544.623" fill="#88644C" width="177.497" height="9.038"/>
		<polygon fill="#88644C" points="87.074,553.66 68.586,553.66 63.619,585.944 73.553,585.944 		"/>
		<polygon fill="#88644C" points="210.415,553.66 228.902,553.66 233.869,585.944 223.935,585.944 		"/>
	</g>
</g>
<g id="Layer_10">
	<g>
		<g>
			<path fill="#84B208" d="M102.279,186.947c2.313-7.755,5.029-15.39,8.132-22.864c2.738-6.594,5.898-13.233,11.092-18.131
				c2.791-2.631,6.226-4.73,10.023-5.271c3.797-0.541,7.965,0.684,10.364,3.676c3.694,4.607,2.236,11.377,3.859,17.055
				c1.58-6.838,3.162-13.982,1.489-20.799c-1.673-6.816-7.693-13.119-14.692-12.606c-3.981,0.292-7.501,2.658-10.515,5.276
				c-14.408,12.512-21.285,31.762-23.824,50.675"/>
		</g>
		<g>
			<path fill="#84B208" d="M97.377,187.554c-0.897-9.74-6.301-18.465-12.26-26.222c-3.074-4.001-6.381-7.899-10.473-10.85
				c-7.311-5.273-16.987-7.123-25.729-4.921c2.735-3.265,5.909-6.371,9.916-7.816c5.921-2.135,12.736-0.181,17.728,3.653
				c4.992,3.834,8.448,9.307,11.41,14.861c4.887,9.163,8.725,18.885,11.414,28.915"/>
		</g>
		<g>
			<path fill="#84B208" d="M98.009,184.156c-5.331-28.074-18.142-54.692-36.758-76.372c-6.352-7.397-13.56-14.364-22.44-18.391
				c3.098-1.723,6.96-0.739,10.273,0.521c18.172,6.91,33.366,21.306,41.245,39.079c7.367,16.616,8.348,35.254,9.22,53.409"/>
		</g>
		<g>
			<path fill="#84B208" d="M99.061,182.69c-1.239-25.391-7.379-50.255-13.506-74.927C80.773,88.51,75.962,69.197,68.77,50.709
				c11.037,8.474,16.311,22.353,20.11,35.739c8.927,31.453,12.608,64.265,12.55,96.96"/>
		</g>
		<g>
			<path fill="#84B208" d="M98.633,182.433c-1.971-18.967-1.255-38.103-0.295-57.148c1.336-26.525,3.323-53.758,14.673-77.769
				c-1.264,12.691-4.075,25.172-5.979,37.783c-5.012,33.196-3.706,66.969-4.651,100.528"/>
		</g>
		<g>
			<path fill="#84B208" d="M101.895,186.288c-2.118-18.017-1.749-35.243,4.795-52.163c3.632-9.389,12.396-19.562,18.449-27.606
				s14.129-14.835,23.704-17.945c0.323-0.105,0.674-0.206,0.996-0.097c1.058,0.358,0.381,1.961-0.433,2.727
				c-12.39,11.663-24.446,24.057-32.626,38.978c-9.049,16.506-12.921,35.308-15.785,53.913"/>
		</g>
		<path fill="#FFFFFF" d="M120.647,218.453c0-11.005-3.338-20.75-8.47-26.767l5.236-16.691H82.779l5.236,16.691
			c-5.132,6.017-8.47,15.762-8.47,26.767c0,13.815,5.258,25.647,12.726,30.605v2.842h16.377v-3.355
			C115.727,243.319,120.647,231.815,120.647,218.453z"/>
	</g>
</g>
<g id="Layer_11">
	<g>
		<g>
			<g>
				<g>
					<path fill="#84B208" d="M181.399,201.49c1.486-8.577,1.838-16.679,4.914-24.963c3.261-8.781,8.78-15.995,12.762-24.324
						c0.317-0.664-0.517-1.444-1.08-0.833c-5.928,6.429-10.038,15.75-13.084,23.88c-2.917,7.784-5.863,17.909-3.888,26.24
						C181.065,201.67,181.366,201.683,181.399,201.49L181.399,201.49z"/>
				</g>
			</g>
			<g>
				<path fill="#84B208" d="M182.042,189.213c0.627-5.724,1.171-11.534,0.235-17.215c-0.936-5.681-3.526-11.303-8.123-14.77
					c-1.095-0.826-2.362-1.541-3.733-1.547c1.831,0.621,2.906,2.482,3.707,4.241c4.648,10.215,5.528,21.693,6.042,32.904"/>
			</g>
			<g>
				<path fill="#84B208" d="M181.254,192.396c1.593-4.5,3.819-8.815,6.912-12.452c3.093-3.636,7.086-6.574,11.628-8.043
					c-6.35,6.478-12.815,13.119-16.703,21.315"/>
			</g>
			<g>
				<path fill="#C34E36" d="M195.519,153.892c-0.084-3.01,1.12-5.896,2.412-8.616c0.535-1.126,1.09-2.245,1.734-3.312
					c2.533-4.196,6.469-7.529,11.026-9.335c0.528,4.732,0.063,9.626-1.776,14.017c-0.788,1.882-1.837,3.68-3.281,5.122
					c-1.444,1.442-3.308,2.511-5.33,2.787"/>
			</g>
			<g>
				<path fill="#F16144" d="M196.075,155.531c-0.648-0.277-1.13-0.835-1.549-1.403c-2.23-3.024-3.31-6.876-2.978-10.619
					c0.332-3.743,2.073-7.344,4.801-9.929c1.664-1.577,3.724-2.846,4.793-4.874c3.169,3.865,4.609,9.096,3.865,14.038
					s-3.663,9.517-7.83,12.276"/>
			</g>
			<g>
				<path fill="#F16144" d="M195.352,155.03c0.495,0.502,1.191,0.747,1.872,0.929c3.63,0.97,7.61,0.568,10.973-1.109
					c3.363-1.677,6.079-4.614,7.488-8.098c0.86-2.125,1.288-4.507,2.785-6.243c-4.756-1.537-10.152-0.966-14.48,1.533
					c-4.328,2.499-7.52,6.887-8.565,11.775"/>
			</g>
		</g>
		<path fill="#F16144" d="M202.131,227.311c0-8.691-5.335-16.064-12.765-18.796v-15.225h-12.675v15.225
			c-7.43,2.732-12.765,10.104-12.765,18.796c0,8.691,5.335,16.064,12.765,18.796v5.793h12.675v-5.793
			C196.796,243.375,202.131,236.003,202.131,227.311z"/>
	</g>
</g>
</svg>
