<?xml version="1.0" standalone="no"?>
<!DOCTYPE svg PUBLIC "-//W3C//DTD SVG 20010904//EN"
 "http://www.w3.org/TR/2001/REC-SVG-20010904/DTD/svg10.dtd">
<svg version="1.0" xmlns="http://www.w3.org/2000/svg"
 width="1280.000000pt" height="1280.000000pt" viewBox="0 0 1280.000000 1280.000000"
 preserveAspectRatio="xMidYMid meet">
<metadata>
Created by potrace 1.15, written by Peter Selinger 2001-2017
</metadata>
<g transform="translate(0.000000,1280.000000) scale(0.100000,-0.100000)"
fill="#000000" stroke="none">
<path d="M475 9007 c-3 -6 -4 -194 -3 -417 l3 -405 1003 -3 1002 -2 0 420 0
420 -1000 0 c-792 0 -1002 -3 -1005 -13z"/>
<path d="M2650 8600 l0 -420 1005 0 1005 0 0 420 0 420 -1005 0 -1005 0 0
-420z"/>
<path d="M4830 8600 l0 -420 1000 0 1000 0 0 420 0 420 -1000 0 -1000 0 0
-420z"/>
<path d="M7007 9013 c-4 -3 -7 -192 -7 -420 l0 -413 1005 0 1005 0 -2 418 -3
417 -996 3 c-547 1 -999 -1 -1002 -5z"/>
<path d="M9180 8600 l0 -420 1003 2 1002 3 0 415 0 415 -1002 3 -1003 2 0
-420z"/>
<path d="M1720 7655 l0 -415 1005 0 1005 0 0 415 0 415 -1005 0 -1005 0 0
-415z"/>
<path d="M3892 7653 l3 -418 1003 -3 1002 -2 0 420 0 420 -1005 0 -1005 0 2
-417z"/>
<path d="M6070 7655 l0 -415 1005 0 1005 0 0 415 0 415 -1005 0 -1005 0 0
-415z"/>
<path d="M8250 7655 l0 -415 1000 0 1000 0 0 415 0 415 -1000 0 -1000 0 0
-415z"/>
<path d="M10420 7655 l0 -415 1005 0 1005 0 0 415 0 415 -1005 0 -1005 0 0
-415z"/>
<path d="M2650 6710 l0 -420 1005 0 1005 0 -2 418 -3 417 -1002 3 -1003 2 0
-420z"/>
<path d="M470 6705 l0 -415 1005 0 1005 0 0 415 0 415 -1005 0 -1005 0 0 -415z"/>
<path d="M4830 6705 l0 -415 1000 0 1000 0 0 415 0 415 -1000 0 -1000 0 0
-415z"/>
<path d="M7000 6705 l0 -415 1005 0 1005 0 0 415 0 415 -1005 0 -1005 0 0
-415z"/>
<path d="M9180 6705 l0 -415 1005 0 1005 0 0 415 0 415 -1005 0 -1005 0 0
-415z"/>
<path d="M1410 5763 l0 -418 1000 0 1000 0 0 418 0 417 -1000 0 -1000 0 0
-417z"/>
<path d="M3580 5760 l0 -420 1005 0 1005 0 0 420 0 420 -1005 0 -1005 0 0
-420z"/>
<path d="M5760 5763 l0 -418 1002 2 1003 3 0 412 0 413 -1002 3 -1003 2 0
-417z"/>
<path d="M7935 6167 c-3 -6 -4 -193 -3 -415 l3 -402 1003 -3 1002 -2 0 418 0
417 -1000 0 c-792 0 -1002 -3 -1005 -13z"/>
<path d="M10112 5765 l3 -415 1000 0 1000 0 3 415 2 415 -1005 0 -1005 0 2
-415z"/>
<path d="M560 4695 l0 -415 1005 0 1005 0 0 415 0 415 -1005 0 -1005 0 0 -415z"/>
<path d="M2740 4695 l0 -415 1005 0 1005 0 0 415 0 415 -1005 0 -1005 0 0
-415z"/>
<path d="M4910 4695 l0 -415 1005 0 1005 0 0 415 0 415 -1005 0 -1005 0 0
-415z"/>
<path d="M7090 4695 l0 -415 1005 0 1005 0 0 415 0 415 -1005 0 -1005 0 0
-415z"/>
<path d="M9270 4695 l0 -415 1000 0 1000 0 0 415 0 415 -1000 0 -1000 0 0
-415z"/>
<path d="M1495 4157 c-3 -6 -4 -193 -3 -415 l3 -402 1003 -3 1002 -2 0 418 0
417 -1000 0 c-792 0 -1002 -3 -1005 -13z"/>
<path d="M3670 3750 l0 -420 1005 0 1005 0 0 420 0 420 -1005 0 -1005 0 0
-420z"/>
<path d="M5850 3753 l0 -418 1000 0 1000 0 0 418 0 417 -1000 0 -1000 0 0
-417z"/>
<path d="M8022 3755 c2 -228 6 -415 11 -415 4 0 455 0 1002 0 l995 0 0 415 0
415 -1005 0 -1005 0 2 -415z"/>
<path d="M10200 3753 l0 -418 1002 2 1003 3 3 415 2 415 -1005 0 -1005 0 0
-417z"/>
<path d="M2430 2805 l0 -415 1005 0 1005 0 0 415 0 415 -1005 0 -1005 0 0
-415z"/>
<path d="M4600 2805 l0 -415 1005 0 1005 0 0 415 0 415 -1005 0 -1005 0 0
-415z"/>
<path d="M6780 2805 l0 -415 1005 0 1005 0 0 415 0 415 -1005 0 -1005 0 0
-415z"/>
<path d="M8950 2805 l0 -415 1005 0 1005 0 0 415 0 415 -1005 0 -1005 0 0
-415z"/>
<path d="M1495 2267 c-3 -6 -4 -194 -3 -417 l3 -405 1003 -3 1002 -2 0 420 0
420 -1000 0 c-792 0 -1002 -3 -1005 -13z"/>
<path d="M3670 1860 l0 -420 1005 0 1005 0 0 420 0 420 -1005 0 -1005 0 0
-420z"/>
<path d="M5850 1860 l0 -420 1000 0 1000 0 0 420 0 420 -1000 0 -1000 0 0
-420z"/>
<path d="M8025 2267 c-3 -6 -4 -194 -3 -417 l3 -405 1003 -3 1002 -2 0 420 0
420 -1000 0 c-792 0 -1002 -3 -1005 -13z"/>
<path d="M10200 1860 l0 -420 1003 2 1002 3 0 415 0 415 -1002 3 -1003 2 0
-420z"/>
</g>
</svg>
