<?xml version="1.0" standalone="no"?>
<!DOCTYPE svg PUBLIC "-//W3C//DTD SVG 20010904//EN"
 "http://www.w3.org/TR/2001/REC-SVG-20010904/DTD/svg10.dtd">
<svg version="1.0" xmlns="http://www.w3.org/2000/svg"
 width="1280.000000pt" height="1244.000000pt" viewBox="0 0 1280.000000 1244.000000"
 preserveAspectRatio="xMidYMid meet">
<metadata>
Created by potrace 1.15, written by Peter Selinger 2001-2017
</metadata>
<g transform="translate(0.000000,1244.000000) scale(0.100000,-0.100000)"
fill="#000000" stroke="none">
<path d="M8215 12277 c-72 -89 -301 -371 -510 -627 -448 -548 -694 -852 -905
-1120 -1123 -1423 -1730 -2459 -1944 -3315 -51 -204 -67 -330 -73 -552 -6
-242 4 -222 -103 -198 -168 37 -224 10 -318 -152 -83 -142 -104 -280 -63 -426
l18 -67 -97 -107 c-331 -368 -815 -754 -1295 -1033 -404 -235 -670 -437 -989
-749 -441 -434 -795 -907 -1261 -1686 -253 -423 -596 -1021 -621 -1083 -37
-92 -57 -215 -51 -305 4 -64 12 -94 41 -151 19 -39 52 -87 73 -107 107 -103
635 -544 678 -567 43 -23 61 -27 135 -26 63 0 97 6 130 21 25 11 212 124 415
250 204 127 424 257 490 290 688 346 1349 903 1923 1622 340 426 646 910 982
1551 213 407 345 588 547 750 l74 60 88 0 c112 0 203 23 351 90 152 68 189
104 204 195 6 35 -13 165 -39 268 l-7 27 108 0 c802 2 1948 609 3414 1809 755
618 1464 1265 3128 2856 l64 61 -749 434 c-411 239 -939 545 -1173 680 -234
136 -891 517 -1460 847 -569 330 -1044 605 -1055 611 -18 9 -33 -6 -150 -151z
m-2812 -7327 c32 -95 67 -224 66 -247 0 -14 -79 227 -113 347 l-7 25 14 -25
c8 -14 26 -59 40 -100z"/>
</g>
</svg>
