<?xml version="1.0" standalone="no"?>
<!DOCTYPE svg PUBLIC "-//W3C//DTD SVG 20010904//EN"
 "http://www.w3.org/TR/2001/REC-SVG-20010904/DTD/svg10.dtd">
<svg version="1.0" xmlns="http://www.w3.org/2000/svg"
 width="1280.000000pt" height="1280.000000pt" viewBox="0 0 1280.000000 1280.000000"
 preserveAspectRatio="xMidYMid meet">
<metadata>
Created by potrace 1.15, written by Peter Selinger 2001-2017
</metadata>
<g transform="translate(0.000000,1280.000000) scale(0.100000,-0.100000)"
fill="#000000" stroke="none">
<path d="M6435 10852 c-277 -257 -4818 -4650 -4841 -4683 -158 -222 -169 -518
-30 -748 44 -71 163 -186 238 -229 218 -125 493 -116 703 23 55 37 512 475
3159 3030 444 429 811 781 815 783 4 1 885 -847 1957 -1884 1407 -1362 1968
-1900 2018 -1932 360 -234 846 -71 992 333 70 194 48 405 -61 580 -57 91 16
19 -2565 2515 -1202 1162 -2219 2146 -2260 2186 l-75 73 -50 -47z"/>
<path d="M8350 10058 l0 -303 82 -57 82 -58 1028 0 1028 0 106 67 106 66 -7
286 c-4 157 -9 289 -12 294 -2 4 -546 7 -1209 7 l-1204 0 0 -302z"/>
<path d="M8673 9413 c4 -75 7 -209 7 -298 l0 -161 817 -800 c449 -439 819
-800 822 -802 4 -1 8 486 9 1083 3 975 1 1085 -12 1085 -9 0 -16 7 -16 15 0
13 -97 15 -817 15 l-816 0 6 -137z"/>
<path d="M4649 7112 l-1814 -1719 3 -2271 2 -2272 3708 0 c2040 0 3711 2 3713
4 2 2 -26 989 -63 2193 -37 1203 -67 2213 -67 2244 l-1 56 -1826 1739 c-1004
957 -1829 1740 -1833 1742 -4 1 -824 -771 -1822 -1716z"/>
</g>
</svg>
